<?xml version="1.0" encoding="iso-8859-1"?>
<!-- Generator: Adobe Illustrator 19.0.0, SVG Export Plug-In . SVG Version: 6.00 Build 0)  -->
<svg version="1.1" id="Layer_1" xmlns="http://www.w3.org/2000/svg" xmlns:xlink="http://www.w3.org/1999/xlink" x="0px" y="0px"
	 viewBox="0 0 512 512" style="enable-background:new 0 0 512 512;" xml:space="preserve">
<path style="fill:#FFFFFF;" d="M256,502.228c-135.771,0-246.229-110.458-246.229-246.229S120.229,9.771,256,9.771
	S502.229,120.229,502.229,256S391.771,502.228,256,502.228z"/>
<path style="fill:#E0E0E2;" d="M502.229,256C502.229,120.229,391.771,9.771,256,9.771c-73.164,0-138.965,32.088-184.104,82.916
	c38.711-25.369,84.956-40.148,134.596-40.148c135.771,0,246.229,110.458,246.229,246.229c0,62.607-23.5,119.819-62.125,163.313
	C457.766,418.062,502.229,342.131,502.229,256z"/>
<g>
	<path style="fill:#9CDD05;" d="M497.091,169.792C470.488,95.405,410.443,36.955,335.065,12.495
		c-11.931-3.56-19.452,4.569-19.452,4.569c-51.139,52.941-97.852,83.655-100.745,85.534c-0.092,0.061-0.187,0.12-0.28,0.18
		c-27.007,16.903-49.649,33.983-63.755,48.09c-57.16,57.162-57.16,150.17,0.002,207.33c27.685,27.686,64.502,42.935,103.664,42.939
		c0.004,0,0.011,0,0.014,0c39.152,0.002,75.96-15.248,103.651-42.94c16.509-16.508,37.109-44.8,56.515-77.616
		c0.206-0.349,0.423-0.692,0.651-1.027c28.736-42.343,54.405-71.291,77.077-92.486v-0.011c0,0,0.038-0.029,0.074-0.057
		C500.192,178.92,497.091,169.792,497.091,169.792z"/>
	<path style="fill:#9CDD05;" d="M511.042,234.049c-1.115-8.304-6.607-3.866-8.866-1.631c-16.415,17.385-34.371,39.462-54.171,68.587
		c-21.218,35.81-43.295,65.919-62.206,84.831c-35.072,35.072-81.698,54.387-131.286,54.387c-0.007,0-0.011,0-0.017,0
		c-49.603-0.005-96.233-19.319-131.3-54.386c-72.401-72.4-72.401-190.203-0.002-262.603c16.332-16.334,40.702-34.822,70.482-53.475
		c2.143-1.416,34.354-22.94,73.308-59.762C278.962,0,258.028,0,256,0C114.615,0,0,114.615,0,256s114.615,256,256,256
		s256-114.615,256-256C512,248.603,511.659,241.287,511.042,234.049z"/>
</g>
<g>
	<path style="fill:#85BB04;" d="M497.091,169.792C470.488,95.405,410.443,36.955,335.065,12.495
		c-11.931-3.56-19.452,4.569-19.452,4.569c-16.295,16.869-32.138,31.478-46.26,43.619c86.251,22.791,154.104,91.319,175.928,177.954
		c16.941-21.328,32.644-38.033,47.122-51.568v-0.011c0,0,0.038-0.029,0.074-0.057C500.192,178.92,497.091,169.792,497.091,169.792z"
		/>
	<path style="fill:#85BB04;" d="M216.974,52.778c13.141-10.144,30.729-24.593,49.972-42.782C278.925,0,257.992,0,255.963,0
		C166.24,0,87.313,46.168,41.602,116.032C85.279,76.59,147.331,49.894,216.974,52.778z"/>
	<path style="fill:#85BB04;" d="M512,255.892c0-7.397-0.34-14.713-0.958-21.951c-1.115-8.304-6.608-3.866-8.866-1.632
		c-15.117,16.011-31.545,36.014-49.513,61.825c2.925,122.063-34.787,149.045-89.387,194.246C451.074,447.8,512,358.968,512,255.892z
		"/>
	<path style="fill:#85BB04;" d="M97.146,422.69c-2.006,0-4.011-0.765-5.542-2.296C47.693,376.483,23.51,318.099,23.51,256
		c0-4.328,3.508-7.837,7.837-7.837s7.837,3.509,7.837,7.837c0,57.913,22.553,112.361,63.504,153.313
		c3.061,3.06,3.061,8.023,0,11.082C101.158,421.926,99.151,422.69,97.146,422.69z"/>
	<path style="fill:#85BB04;" d="M147.633,460.749c-1.281,0-2.58-0.315-3.78-0.978c-9.922-5.478-19.542-11.759-28.592-18.669
		c-3.441-2.627-4.1-7.544-1.473-10.985c2.626-3.44,7.545-4.1,10.984-1.473c8.44,6.444,17.408,12.299,26.657,17.407
		c3.789,2.092,5.164,6.86,3.072,10.649C153.071,459.286,150.394,460.749,147.633,460.749z"/>
</g>
<g>
</g>
<g>
</g>
<g>
</g>
<g>
</g>
<g>
</g>
<g>
</g>
<g>
</g>
<g>
</g>
<g>
</g>
<g>
</g>
<g>
</g>
<g>
</g>
<g>
</g>
<g>
</g>
<g>
</g>
</svg>
