<svg height="464pt" viewBox="0 0 464 464" width="464pt" xmlns="http://www.w3.org/2000/svg"><path d="m417.144531 72h-370.289062l-30.855469 160h432zm0 0" fill="#c8d952"/><path d="m440 464h-416l-16-176h448zm0 0" fill="#e97424"/><path d="m152 0v72h32v-40h96v40h32v-72zm0 0" fill="#55b56a"/><path d="m72 336c8.835938 0 16 7.164062 16 16v48c0 8.835938-7.164062 16-16 16s-16-7.164062-16-16v-48c0-8.835938 7.164062-16 16-16zm0 0" fill="#ffd782"/><path d="m152 336c8.835938 0 16 7.164062 16 16v48c0 8.835938-7.164062 16-16 16s-16-7.164062-16-16v-48c0-8.835938 7.164062-16 16-16zm0 0" fill="#ffd782"/><path d="m232 336c8.835938 0 16 7.164062 16 16v48c0 8.835938-7.164062 16-16 16s-16-7.164062-16-16v-48c0-8.835938 7.164062-16 16-16zm0 0" fill="#ffd782"/><path d="m312 336c8.835938 0 16 7.164062 16 16v48c0 8.835938-7.164062 16-16 16s-16-7.164062-16-16v-48c0-8.835938 7.164062-16 16-16zm0 0" fill="#ffd782"/><path d="m392 336c8.835938 0 16 7.164062 16 16v48c0 8.835938-7.164062 16-16 16s-16-7.164062-16-16v-48c0-8.835938 7.164062-16 16-16zm0 0" fill="#ffd782"/><g fill="#55b56a"><path d="m0 232h464v56h-464zm0 0"/><path d="m224 96h16v112h-16zm0 0"/><path d="m176 96h16v112h-16zm0 0"/><path d="m128 96h16v112h-16zm0 0"/><path d="m80 96h16v112h-16zm0 0"/><path d="m368 96h16v112h-16zm0 0"/><path d="m320 96h16v112h-16zm0 0"/><path d="m272 96h16v112h-16zm0 0"/></g><path d="m88 232h96v56h-96zm0 0" fill="#ffd782"/><path d="m280 232h96v56h-96zm0 0" fill="#ffd782"/><path d="m128 232h16v56h-16zm0 0" fill="#55b56a"/><path d="m320 232h16v56h-16zm0 0" fill="#55b56a"/></svg>