<svg height="512pt" viewBox="0 0 512 512" width="512pt" xmlns="http://www.w3.org/2000/svg"><path d="m450.1875 495.003906h-388.375c-34.136719 0-61.8125-27.675781-61.8125-61.8125v-288.453125c0-34.136719 27.675781-61.808593 61.8125-61.808593h388.375c34.136719 0 61.8125 27.675781 61.8125 61.8125v288.449218c0 34.136719-27.675781 61.8125-61.8125 61.8125zm0 0" fill="#ff573d"/><path d="m450.1875 82.929688h-30.902344c34.136719 0 61.808594 27.675781 61.808594 61.8125v288.449218c0 34.136719-27.671875 61.8125-61.808594 61.8125h30.902344c34.136719 0 61.8125-27.675781 61.8125-61.8125v-288.453125c0-34.136719-27.675781-61.808593-61.8125-61.808593zm0 0" fill="#e64028"/><path d="m353.867188 339.113281c0 54.050781-43.816407 97.867188-97.867188 97.867188s-97.867188-43.816407-97.867188-97.867188c0-54.046875 43.816407-97.867187 97.867188-97.867187s97.867188 43.820312 97.867188 97.867187zm0 0" fill="#ffd659"/><path d="m256 241.246094c-5.257812 0-10.417969.421875-15.453125 1.21875 46.707031 7.410156 82.414063 47.859375 82.414063 96.648437 0 48.792969-35.707032 89.242188-82.414063 96.652344 5.035156.796875 10.195313 1.21875 15.453125 1.21875 54.050781 0 97.867188-43.820313 97.867188-97.867187 0-54.050782-43.816407-97.871094-97.867188-97.871094zm0 0" fill="#ffbd54"/><path d="m189.039062 227.15625c0 17.066406-13.835937 30.902344-30.90625 30.902344-17.066406 0-30.90625-13.835938-30.90625-30.902344 0-17.070312 13.839844-30.90625 30.90625-30.90625 17.070313 0 30.90625 13.835938 30.90625 30.90625zm0 0" fill="#ffd659"/><path d="m384.773438 227.15625c0 17.066406-13.839844 30.902344-30.90625 30.902344-17.070313 0-30.90625-13.835938-30.90625-30.902344 0-17.070312 13.835937-30.90625 30.90625-30.90625 17.066406 0 30.90625 13.835938 30.90625 30.90625zm0 0" fill="#ffd659"/><path d="m286.90625 190.066406c0 17.070313-13.835938 30.90625-30.90625 30.90625s-30.90625-13.835937-30.90625-30.90625c0-17.066406 13.835938-30.902344 30.90625-30.902344s30.90625 13.835938 30.90625 30.902344zm0 0" fill="#ffd659"/><path d="m158.132812 196.25c-5.628906 0-10.90625 1.511719-15.453124 4.144531 9.234374 5.34375 15.453124 15.324219 15.453124 26.761719s-6.21875 21.414062-15.453124 26.757812c4.546874 2.632813 9.820312 4.148438 15.453124 4.148438 17.070313 0 30.90625-13.839844 30.90625-30.90625s-13.839843-30.90625-30.90625-30.90625zm0 0" fill="#ffbd54"/><path d="m353.867188 196.25c-5.632813 0-10.90625 1.511719-15.453126 4.144531 9.234376 5.34375 15.453126 15.324219 15.453126 26.761719s-6.21875 21.414062-15.453126 26.757812c4.546876 2.632813 9.820313 4.148438 15.453126 4.148438 17.070312 0 30.90625-13.839844 30.90625-30.90625s-13.835938-30.90625-30.90625-30.90625zm0 0" fill="#ffbd54"/><path d="m256 159.164062c-5.632812 0-10.90625 1.511719-15.453125 4.144532 9.234375 5.34375 15.453125 15.324218 15.453125 26.761718s-6.21875 21.414063-15.453125 26.757813c4.546875 2.632813 9.820313 4.148437 15.453125 4.148437 17.070312 0 30.90625-13.839843 30.90625-30.90625 0-17.066406-13.835938-30.90625-30.90625-30.90625zm0 0" fill="#ffbd54"/><path d="m307.507812 338.414062c0 4.265626-1.730468 8.128907-4.53125 10.921876-2.792968 2.800781-6.65625 4.53125-10.921874 4.53125h-20.601563v20.605468c0 8.527344-6.925781 15.453125-15.453125 15.453125-8.53125 0-15.453125-6.925781-15.453125-15.453125v-20.605468h-20.605469c-8.53125 0-15.453125-6.921876-15.453125-15.453126s6.921875-15.453124 15.453125-15.453124h20.605469v-20.605469c0-8.527344 6.921875-15.453125 15.453125-15.453125 4.265625 0 8.128906 1.734375 10.917969 4.535156 2.804687 2.792969 4.535156 6.65625 4.535156 10.917969v20.605469h20.601563c8.53125 0 15.453124 6.925781 15.453124 15.453124zm0 0" fill="#89ceea"/><g fill="#ffd659"><path d="m48.417969 123.105469c0 4.269531-3.460938 7.726562-7.726563 7.726562s-7.726562-3.457031-7.726562-7.726562c0-4.265625 3.460937-7.722657 7.726562-7.722657s7.726563 3.457032 7.726563 7.722657zm0 0"/><path d="m474.914062 123.105469c0 4.269531-3.460937 7.726562-7.726562 7.726562s-7.726562-3.457031-7.726562-7.726562c0-4.265625 3.460937-7.722657 7.726562-7.722657s7.726562 3.457032 7.726562 7.722657zm0 0"/><path d="m48.417969 455.855469c0 4.265625-3.460938 7.726562-7.726563 7.726562s-7.726562-3.460937-7.726562-7.726562 3.460937-7.726563 7.726562-7.726563 7.726563 3.460938 7.726563 7.726563zm0 0"/><path d="m474.914062 455.855469c0 4.265625-3.460937 7.726562-7.726562 7.726562s-7.726562-3.460937-7.726562-7.726562 3.460937-7.726563 7.726562-7.726563 7.726562 3.460938 7.726562 7.726563zm0 0"/></g><path d="m380.652344 62.035156v56.433594c0 8.535156-6.917969 15.453125-15.453125 15.453125-8.535157 0-15.453125-6.917969-15.453125-15.453125v-56.433594c0-17.191406-13.9375-31.128906-31.132813-31.128906h-125.226562c-17.195313 0-31.132813 13.9375-31.132813 31.128906v56.433594c0 8.535156-6.917968 15.453125-15.453125 15.453125-8.535156 0-15.453125-6.917969-15.453125-15.453125v-56.433594c0-34.261718 27.773438-62.035156 62.039063-62.035156h125.226562c34.265625 0 62.039063 27.773438 62.039063 62.035156zm0 0" fill="#e8e1d5"/><path d="m318.613281 0h-30.902343c33.722656 0 61.140624 26.914062 61.996093 60.433594.027344.53125.039063 1.066406.039063 1.601562v56.433594c0 8.535156 6.917968 15.453125 15.453125 15.453125 8.535156 0 15.453125-6.917969 15.453125-15.453125v-56.433594c0-34.261718-27.773438-62.035156-62.039063-62.035156zm0 0" fill="#d6cfc4"/><path d="m146.921875 512h-53.8125c-2.207031 0-4-1.789062-4-4v-22.90625c0-2.207031 1.792969-4 4-4h53.8125c2.210937 0 4 1.792969 4 4v22.90625c0 2.210938-1.789063 4-4 4zm0 0" fill="#e8e1d5"/><path d="m418.890625 512h-53.8125c-2.210937 0-4-1.789062-4-4v-22.90625c0-2.207031 1.789063-4 4-4h53.8125c2.207031 0 4 1.792969 4 4v22.90625c0 2.210938-1.792969 4-4 4zm0 0" fill="#e8e1d5"/><path d="m120.015625 481.09375v30.90625h26.90625c2.207031 0 4-1.789062 4-4v-22.90625c0-2.207031-1.792969-4-4-4zm0 0" fill="#d6cfc4"/><path d="m391.984375 481.09375v30.90625h26.90625c2.207031 0 4-1.789062 4-4v-22.90625c0-2.207031-1.792969-4-4-4zm0 0" fill="#d6cfc4"/></svg>