<svg height="480pt" viewBox="0 -31 480 479" width="480pt" xmlns="http://www.w3.org/2000/svg"><path d="m24 88.5h432c8.835938 0 16 7.164062 16 16v264c0 8.835938-7.164062 16-16 16h-432c-8.835938 0-16-7.164062-16-16v-264c0-8.835938 7.164062-16 16-16zm0 0" fill="#7fcac9"/><g fill="#fff"><path d="m320 298.851562c0 44.441407-35.816406 53.648438-80 53.648438s-80-9.207031-80-53.648438c0-44.441406 35.816406-98.351562 80-98.351562s80 53.910156 80 98.351562zm0 0"/><path d="m152 208.5c0 13.253906-10.746094 24-24 24s-24-10.746094-24-24 10.746094-24 24-24 24 10.746094 24 24zm0 0"/><path d="m216 152.5c0 13.253906-10.746094 24-24 24s-24-10.746094-24-24 10.746094-24 24-24 24 10.746094 24 24zm0 0"/><path d="m376 208.5c0 13.253906-10.746094 24-24 24s-24-10.746094-24-24 10.746094-24 24-24 24 10.746094 24 24zm0 0"/><path d="m312 152.5c0 13.253906-10.746094 24-24 24s-24-10.746094-24-24 10.746094-24 24-24 24 10.746094 24 24zm0 0"/></g><path d="m120 16.5v72h48v-48h144v48h48v-72c0-8.835938-7.164062-16-16-16h-208c-8.835938 0-16 7.164062-16 16zm0 0" fill="#aabece"/><path d="m280 264.5h-24v-24h-32v24h-24v32h24v24h32v-24h24zm0 0" fill="#dd3e46"/><path d="m40 88.5h48v56h-48zm0 0" fill="#195c85"/><path d="m392 88.5h48v56h-48zm0 0" fill="#195c85"/><path d="m56 384.5h96v32h-96zm0 0" fill="#195c85"/><path d="m328 384.5h96v32h-96zm0 0" fill="#195c85"/><path d="m136 360.5h-128c-4.417969 0-8-3.582031-8-8s3.582031-8 8-8h128c4.417969 0 8 3.582031 8 8s-3.582031 8-8 8zm0 0" fill="#fff"/><path d="m472 360.5h-128c-4.417969 0-8-3.582031-8-8s3.582031-8 8-8h128c4.417969 0 8 3.582031 8 8s-3.582031 8-8 8zm0 0" fill="#fff"/></svg>