<svg viewBox="-19 0 512 512" xmlns="http://www.w3.org/2000/svg"><path d="m458.132812 512h-401.667968c-37.550782 0-49.894532-16.257812-53.90625-25.945312-4.011719-9.691407-6.78125-29.910157 19.773437-56.464844l62.8125-62.816406c5.855469-5.855469 15.355469-5.855469 21.210938 0 5.859375 5.859374 5.859375 15.355468.003906 21.214843l-62.816406 62.8125c-11.992188 11.992188-14.503907 20.789063-13.269531 23.773438 1.238281 2.984375 9.234374 7.425781 26.191406 7.425781h401.664062c8.285156 0 15 6.714844 15 15s-6.714844 15-14.996094 15zm0 0" fill="#ff5b5b"/><path d="m458.132812 482h-401.667968c-16.957032 0-24.953125-4.441406-26.191406-7.425781-1.234376-2.984375 1.277343-11.78125 13.269531-23.773438l62.816406-62.8125c5.855469-5.859375 5.855469-15.355469 0-21.214843l-106.3515625 106.347656c.0390625 5.359375 1.2226565 9.726562 2.5507815 12.933594 4.011718 9.6875 16.355468 25.945312 53.90625 25.945312h401.667968c8.28125 0 15-6.714844 15-15s-6.71875-15-15-15zm0 0" fill="#ff3980"/><path d="m421.964844 128.597656c-1.300782-23.753906-8.632813-42.472656-21.792969-55.632812-13.164063-13.164063-31.878906-20.496094-55.632813-21.792969-19.511718-1.070313-42.496093 1.941406-68.324218 8.949219-43.890625 11.90625-94.324219 34.875-138.371094 63.019531-6.980469 4.460937-9.023438 13.738281-4.566406 20.71875 4.460937 6.980469 13.734375 9.023437 20.71875 4.5625.925781-.59375 1.859375-1.179687 2.796875-1.769531l169.683593 169.691406c-.589843.933594-1.175781 1.867188-1.765624 2.792969-4.460938 6.980469-2.417969 16.257812 4.5625 20.71875 2.5 1.597656 5.296874 2.359375 8.0625 2.359375 4.949218 0 9.792968-2.445313 12.652343-6.925782 28.148438-44.046874 51.117188-94.480468 63.023438-138.371093 7.003906-25.828125 10.015625-48.8125 8.953125-68.320313zm0 0" fill="#fdf6c8"/><path d="m400.171875 72.964844s0 0-.003906-.003906l-158.535157 158.535156 84.84375 84.847656c-.585937.933594-1.175781 1.867188-1.765624 2.792969-4.460938 6.980469-2.417969 16.257812 4.5625 20.71875 2.503906 1.597656 5.296874 2.359375 8.0625 2.359375 4.949218 0 9.792968-2.445313 12.65625-6.925782 28.144531-44.046874 51.113281-94.480468 63.019531-138.371093 7.007812-25.828125 10.019531-48.8125 8.953125-68.320313-1.300782-23.753906-8.632813-42.472656-21.792969-55.632812zm0 0" fill="#ffde8d"/><path d="m317.199219 356.8125c-5.984375-5.210938-14.921875-4.808594-20.441407.722656l-181.164062-181.152344c5.53125-5.519531 5.929688-14.453124.722656-20.4375-5.4375-6.25-14.914062-6.910156-21.164062-1.472656-3.636719 3.164063-7 6.289063-10.007813 9.292969-61.816406 61.820313-61.816406 162.402344 0 224.222656 30.910157 30.910157 71.507813 46.363281 112.113281 46.363281 40.601563 0 81.203126-15.457031 112.117188-46.367187 2.996094-3 6.121094-6.367187 9.292969-10.007813 5.4375-6.25 4.777343-15.722656-1.46875-21.164062zm0 0" fill="#fdf6c8"/><path d="m85.144531 387.984375c30.910157 30.910156 71.507813 46.363281 112.109375 46.363281 40.601563 0 81.207032-15.453125 112.117188-46.367187 3-2.996094 6.125-6.363281 9.292968-10.003907 5.441407-6.25 4.78125-15.726562-1.46875-21.164062-5.984374-5.210938-14.917968-4.808594-20.441406.71875l-90.582031-90.574219zm0 0" fill="#ffde8d"/><path d="m270.03125 161.292969c-3.945312 0-7.808594-1.601563-10.605469-4.390625-2.792969-2.789063-4.394531-6.660156-4.394531-10.609375s1.601562-7.8125 4.394531-10.609375c2.796875-2.792969 6.660157-4.390625 10.605469-4.390625 3.953125 0 7.820312 1.597656 10.613281 4.390625 2.789063 2.800781 4.386719 6.660156 4.386719 10.609375s-1.597656 7.820312-4.386719 10.609375c-2.792969 2.789062-6.660156 4.390625-10.613281 4.390625zm0 0" fill="#913f02"/><path d="m326.84375 218.101562c-3.949219 0-7.820312-1.609374-10.609375-4.398437s-4.398437-6.660156-4.398437-10.601563c0-3.949218 1.609374-7.820312 4.398437-10.609374 2.789063-2.789063 6.660156-4.390626 10.609375-4.390626s7.8125 1.601563 10.601562 4.390626c2.789063 2.789062 4.390626 6.660156 4.390626 10.609374 0 3.941407-1.601563 7.8125-4.390626 10.601563-2.792968 2.789063-6.652343 4.398437-10.601562 4.398437zm0 0" fill="#552003"/><path d="m128.027344 231.503906c31.367187 31.367188 82.234375 31.367188 113.605468-.003906l-113.605468-113.605469c-31.375 31.371094-31.375 82.234375 0 113.609375zm0 0" fill="#ff3980"/><path d="m241.632812 345.109375c31.375 31.371094 82.238282 31.371094 113.609376 0l-113.609376-113.609375c-31.371093 31.371094-31.371093 82.234375 0 113.609375zm0 0" fill="#ff5b5b"/><path d="m365.847656 334.503906-113.609375-113.609375-113.605469-113.609375c-5.855468-5.855468-15.355468-5.855468-21.210937 0-18.007813 18.003906-27.925781 41.945313-27.925781 67.410156 0 25.464844 9.917968 49.40625 27.925781 67.414063 18 18 41.9375 27.917969 67.402344 27.917969h.011719c6.996093 0 13.875-.753906 20.550781-2.210938-6.707031 30.695313 1.820312 64.078125 25.640625 87.898438 18.003906 18.007812 41.945312 27.921875 67.410156 27.921875s49.40625-9.914063 67.410156-27.921875c5.859375-5.859375 5.859375-15.355469 0-21.210938zm-181.019531-94.476562c-17.453125 0-33.859375-6.796875-46.195313-19.132813-12.339843-12.339843-19.136718-28.746093-19.136718-46.199219 0-12.335937 3.394531-24.148437 9.746094-34.375l89.960937 89.964844c-10.222656 6.347656-22.035156 9.742188-34.367187 9.742188-.003907 0-.003907 0-.007813 0zm113.609375 113.609375c-17.453125 0-33.859375-6.792969-46.199219-19.132813-21.824219-21.824218-24.949219-55.378906-9.378906-80.5625l89.953125 89.949219c-10.222656 6.351563-22.039062 9.746094-34.375 9.746094zm0 0" fill="#ffde8d"/><path d="m456.972656 16.15625c-10.417968-10.417969-24.273437-16.15625-39.007812-16.15625s-28.585938 5.738281-39.007813 16.15625c-21.511719 21.507812-21.511719 56.507812 0 78.019531 10.421875 10.421875 24.273438 16.160157 39.007813 16.160157s28.589844-5.738282 39.007812-16.160157c21.511719-21.511719 21.507813-56.511719 0-78.019531zm0 0" fill="#ff5b5b"/><path d="m417.964844 110.335938c14.734375 0 28.589844-5.738282 39.007812-16.160157 21.511719-21.511719 21.511719-56.511719 0-78.019531l-78.015625 78.019531c10.421875 10.421875 24.273438 16.160157 39.007813 16.160157zm0 0" fill="#ff3980"/><path d="m252.238281 220.894531-46.9375 46.941407c.027344-.007813.058594-.011719.085938-.019532-6.707031 30.695313 1.820312 64.082032 25.640625 87.898438 18.003906 18.007812 41.945312 27.921875 67.410156 27.921875s49.40625-9.914063 67.410156-27.921875c5.859375-5.859375 5.859375-15.355469 0-21.210938zm46.199219 132.742188c-17.453125 0-33.859375-6.792969-46.199219-19.132813-21.824219-21.824218-24.949219-55.378906-9.378906-80.5625l89.953125 89.949219c-10.222656 6.351563-22.039062 9.746094-34.375 9.746094zm0 0" fill="#f8bb5e"/></svg>