<svg viewBox="-29 1 511 511.99998" xmlns="http://www.w3.org/2000/svg"><path d="m306.804688 115.875v-85.265625c0-16.90625-13.703126-30.609375-30.605469-30.609375h-77.003907c-16.90625 0-30.609374 13.703125-30.609374 30.609375v85.265625" fill="#eaeaea"/><path d="m244.273438 0h-45.078126c-16.90625 0-30.609374 13.703125-30.609374 30.609375v85.265625h45.082031v-85.265625c-.003907-16.90625 13.703125-30.609375 30.605469-30.609375zm0 0" fill="#ccc"/><path d="m337.46875 120.171875c-66.515625-11.039063-133.03125-11.039063-199.542969 0-17.636719 2.925781-31.054687 17.445313-32.621093 35.25-9.164063 104.347656-9.164063 208.699219 0 313.046875 1.566406 17.808594 14.984374 32.324219 32.621093 35.25 66.511719 11.039062 133.027344 11.039062 199.542969 0 17.632812-2.925781 31.050781-17.441406 32.617188-35.25 9.164062-104.347656 9.164062-208.699219 0-313.046875-1.566407-17.804687-14.984376-32.324219-32.617188-35.25zm0 0" fill="#43b9dd"/><path d="m172.273438 508.433594c-11.453126-1.246094-22.894532-2.8125-34.347657-4.714844-17.636719-2.925781-31.054687-17.449219-32.621093-35.253906-9.164063-104.34375-9.164063-208.699219 0-313.042969 1.566406-17.8125 14.984374-32.328125 32.621093-35.253906 11.453125-1.902344 22.894531-3.46875 34.347657-4.710938-9.144532 6.894531-15.328126 17.847657-16.351563 30.300781-9.164063 110.789063-9.164063 221.582032 0 332.371094 1.023437 12.457032 7.207031 23.40625 16.351563 30.304688zm0 0" fill="#2ca3bf"/><g fill="#fff"><path d="m274.839844 338.222656c0 20.515625-16.628906 37.144532-37.144532 37.144532-20.515624 0-37.144531-16.628907-37.144531-37.144532s16.628907-37.144531 37.144531-37.144531c20.515626 0 37.144532 16.628906 37.144532 37.144531zm0 0"/><path d="m227.59375 263.976562c0 8.53125-6.914062 15.445313-15.445312 15.445313s-15.445313-6.914063-15.445313-15.445313 6.914063-15.445312 15.445313-15.445312 15.445312 6.914062 15.445312 15.445312zm0 0"/><path d="m187.585938 296.3125c0 8.53125-6.917969 15.445312-15.445313 15.445312-8.53125 0-15.445313-6.914062-15.445313-15.445312s6.914063-15.445312 15.445313-15.445312c8.527344 0 15.445313 6.914062 15.445313 15.445312zm0 0"/><path d="m318.699219 297.523438c0 8.527343-6.917969 15.445312-15.449219 15.445312-8.527344 0-15.445312-6.917969-15.445312-15.445312 0-8.53125 6.917968-15.445313 15.445312-15.445313 8.53125 0 15.449219 6.914063 15.449219 15.445313zm0 0"/><path d="m279.273438 264.453125c0 8.53125-6.917969 15.445313-15.445313 15.445313-8.53125 0-15.445313-6.914063-15.445313-15.445313s6.914063-15.445313 15.445313-15.445313c8.527344 0 15.445313 6.914063 15.445313 15.445313zm0 0"/><path d="m320.242188 418.761719h-165.09375c-4.328126 0-7.835938-3.507813-7.835938-7.835938s3.507812-7.835937 7.835938-7.835937h165.09375c4.328124 0 7.835937 3.507812 7.835937 7.835937s-3.507813 7.835938-7.835937 7.835938zm0 0"/><path d="m287.851562 454.320312h-100.3125c-4.328124 0-7.835937-3.507812-7.835937-7.835937s3.507813-7.835937 7.835937-7.835937h100.3125c4.328126 0 7.835938 3.507812 7.835938 7.835937s-3.507812 7.835937-7.835938 7.835937zm0 0"/></g><path d="m429.957031 180.003906c0 19.101563-12.507812 35.285156-29.78125 40.8125-4.117187 1.316406-8.503906 2.027344-13.058593 2.027344-23.660157 0-42.84375-19.183594-42.84375-42.839844s19.183593-42.839844 42.84375-42.839844c4.554687 0 8.941406.710938 13.058593 2.027344 17.273438 5.527344 29.78125 21.710938 29.78125 40.8125zm0 0" fill="#ccc"/><path d="m429.957031 180.003906c0 19.101563-12.507812 35.285156-29.78125 40.8125-17.269531-5.527344-29.777343-21.710937-29.777343-40.8125 0-19.101562 12.507812-35.285156 29.777343-40.8125 17.273438 5.527344 29.78125 21.710938 29.78125 40.8125zm0 0" fill="#eaeaea"/><path d="m452.945312 89.097656c0 11.179688-7.324218 20.65625-17.433593 23.890625-2.410157.769531-4.980469 1.1875-7.644531 1.1875-13.847657 0-25.078126-11.230469-25.078126-25.078125s11.230469-25.078125 25.078126-25.078125c2.664062 0 5.234374.417969 7.644531 1.1875 10.113281 3.234375 17.433593 12.710938 17.433593 23.890625zm0 0" fill="#ccc"/><path d="m452.945312 89.097656c0 11.179688-7.324218 20.65625-17.433593 23.890625-10.109375-3.238281-17.433594-12.710937-17.433594-23.890625 0-11.179687 7.324219-20.65625 17.433594-23.890625 10.113281 3.234375 17.433593 12.710938 17.433593 23.890625zm0 0" fill="#eaeaea"/><path d="m59.539062 331.777344c0 13.160156-8.617187 24.3125-20.519531 28.121094-2.835937.90625-5.859375 1.398437-9 1.398437-16.300781 0-29.519531-13.21875-29.519531-29.519531 0-16.300782 13.21875-29.519532 29.519531-29.519532 3.140625 0 6.164063.488282 9 1.398438 11.902344 3.808594 20.519531 14.960938 20.519531 28.121094zm0 0" fill="#ccc"/><path d="m59.539062 331.777344c0 13.160156-8.617187 24.3125-20.519531 28.121094-11.902343-3.808594-20.519531-14.960938-20.519531-28.121094s8.617188-24.3125 20.519531-28.121094c11.902344 3.808594 20.519531 14.960938 20.519531 28.121094zm0 0" fill="#eaeaea"/><path d="m143.148438 460.53125c0 22.945312-15.027344 42.394531-35.777344 49.03125-4.945313 1.582031-10.21875 2.4375-15.691406 2.4375-28.421876 0-51.46875-23.046875-51.46875-51.46875s23.046874-51.46875 51.46875-51.46875c5.472656 0 10.746093.851562 15.691406 2.433594 20.75 6.640625 35.777344 26.085937 35.777344 49.035156zm0 0" fill="#ccc"/><path d="m143.148438 460.53125c0 22.945312-15.027344 42.394531-35.777344 49.03125-20.75-6.636719-35.777344-26.085938-35.777344-49.03125 0-22.949219 15.027344-42.394531 35.777344-49.035156 20.75 6.640625 35.777344 26.085937 35.777344 49.035156zm0 0" fill="#eaeaea"/></svg>