<svg viewBox="0 -5 512.00091 512" xmlns="http://www.w3.org/2000/svg"><path d="m453.460938 226.734375c0 125.21875-101.511719 226.730469-226.730469 226.730469s-226.730469-101.511719-226.730469-226.730469c0-125.222656 101.511719-226.73046875 226.730469-226.73046875s226.730469 101.50781275 226.730469 226.73046875zm0 0" fill="#43b9dd"/><path d="m226.730469 453.464844c-125.21875 0-226.730469-101.511719-226.730469-226.730469 0-125.222656 101.511719-226.734375 226.730469-226.734375-75.804688 0-137.253907 101.511719-137.253907 226.734375 0 125.21875 61.449219 226.730469 137.253907 226.730469zm0 0" fill="#2ca3bf"/><path d="m140.824219 377.625c0 9.269531.398437 18.445312 1.179687 27.503906.992188 11.460938 2.59375 22.738282 4.777344 33.8125-38.496094-14.503906-72.015625-39.183594-97.25-70.769531-.1875-4.578125-.273438-9.1875-.273438-13.816406 0-60.769531 15.351563-117.957031 42.382813-167.902344 44.910156-82.976563 122.066406-145.941406 214.652344-172.105469h.011719c31.859374 11.941406 60.320312 30.84375 83.507812 54.855469-142.304688 30.523437-248.988281 156.996094-248.988281 308.421875zm0 0" fill="#e04149"/><path d="m146.78125 438.941406c-38.496094-14.503906-72.015625-39.183594-97.25-70.769531-.1875-4.578125-.273438-9.1875-.273438-13.816406 0-60.769531 15.351563-117.957031 42.382813-167.902344-1.421875 13.070313-2.164063 26.527344-2.164063 40.28125 0 72.398437 20.542969 136.878906 52.527344 178.394531.992188 11.460938 2.59375 22.738282 4.777344 33.8125zm0 0" fill="#cc2939"/><path d="m228.535156 462.09375h163.703125l22.753907 22.753906c22.195312 22.191406 58.175781 22.191406 80.371093 0 21.9375-21.9375 22.175781-57.335937.746094-79.585937 21.429687-22.246094 21.191406-57.648438-.746094-79.582031-22.195312-22.195313-58.175781-22.195313-80.371093 0l-22.753907 22.753906h-163.707031l-22.75-22.753906c-22.195312-22.195313-58.179688-22.195313-80.371094 0-21.9375 21.9375-22.175781 57.335937-.75 79.582031-21.425781 22.25-21.1875 57.648437.75 79.585937 22.191406 22.191406 58.175782 22.191406 80.371094 0zm0 0" fill="#d8951e"/><path d="m455.175781 491.042969c-12.386719 0-24.035156-4.824219-32.796875-13.585938l-25.8125-25.8125h-172.359375l-25.816406 25.8125c-8.757813 8.761719-20.40625 13.585938-32.796875 13.585938-12.386719 0-24.035156-4.824219-32.792969-13.585938-17.742187-17.742187-18.015625-46.875-.613281-64.945312l6.980469-7.25-6.980469-7.25c-17.402344-18.070313-17.128906-47.203125.609375-64.945313 8.761719-8.761718 20.410156-13.585937 32.796875-13.585937 12.390625 0 24.039062 4.824219 32.796875 13.585937l25.816406 25.816406h172.359375l25.816406-25.816406c8.757813-8.757812 20.40625-13.582031 32.796876-13.582031 12.386718 0 24.035156 4.824219 32.796874 13.582031 17.738282 17.742188 18.011719 46.878906.609376 64.949219l-6.980469 7.246094 6.980469 7.25c17.402343 18.070312 17.128906 47.207031-.609376 64.949219-8.761718 8.757812-20.410156 13.582031-32.800781 13.582031zm0 0" fill="#edd464"/><g fill="#d8951e"><path d="m467.074219 350c-6.90625 0-10.390625-8.699219-5.429688-13.480469 2.507813-2.417969 6.464844-2.878906 9.453125-1.078125 2.867188 1.726563 4.351563 5.175782 3.613282 8.441406-.792969 3.527344-4.015626 6.117188-7.636719 6.117188zm0 0"/><path d="m480.65625 368.808594c-3.117188 0-6.058594-1.945313-7.242188-4.839844-1.296874-3.171875-.359374-6.910156 2.300782-9.074219 2.472656-2.007812 6.023437-2.3125 8.800781-.742187 2.878906 1.628906 4.457031 5.015625 3.835937 8.269531-.695312 3.648437-3.964843 6.386719-7.695312 6.386719zm0 0"/><path d="m137.929688 466.828125c-7.105469 0-10.515626-9.171875-5.089844-13.792969 5.542968-4.71875 14.199218.359375 12.769531 7.492188-.726563 3.621094-3.984375 6.300781-7.679687 6.300781zm0 0"/><path d="m153.601562 481.65625c-7.027343 0-10.511718-9.03125-5.183593-13.703125 2.375-2.082031 5.878906-2.554687 8.707031-1.132813 3.023438 1.523438 4.773438 4.941407 4.207031 8.292969-.632812 3.71875-3.941406 6.542969-7.730469 6.542969zm0 0"/><path d="m456.625 369.851562c-3.195312 0-6.167969-2.03125-7.308594-5.015624-1.265625-3.300782-.125-7.144532 2.757813-9.195313 5.730469-4.085937 13.792969 1.238281 12.179687 8.140625-.820312 3.503906-4.023437 6.070312-7.628906 6.070312zm0 0"/></g></svg>