<?xml version="1.0" encoding="utf-8"?>
<!-- Generator: Adobe Illustrator 22.1.0, SVG Export Plug-In . SVG Version: 6.00 Build 0)  -->
<svg version="1.1" id="Capa_1" xmlns="http://www.w3.org/2000/svg" xmlns:xlink="http://www.w3.org/1999/xlink" x="0px" y="0px"
	 viewBox="0 0 512 512" style="enable-background:new 0 0 512 512;" xml:space="preserve">
<style type="text/css">
	.st0{fill:#82C35F;}
	.st1{display:none;}
	.st2{display:inline;fill:#F5DCB4;}
	.st3{display:inline;fill:#965A50;}
	.st4{display:inline;fill:#4B3F4E;}
	.st5{display:inline;fill:#5D5360;}
	.st6{display:inline;fill:#FFFFFF;}
	.st7{display:inline;fill:#824641;}
	.st8{display:inline;fill:#E7C9A5;}
	.st9{display:inline;fill:#BC8E78;}
	.st10{display:inline;fill:#FF8087;}
	.st11{display:inline;fill:#E6646E;}
	.st12{display:inline;fill:#D4AF91;}
	.st13{display:inline;fill:#FFC850;}
	.st14{display:inline;fill:#EBAF4B;}
	.st15{display:inline;fill:#FFDC64;}
	.st16{display:inline;}
	.st17{fill:#E1A546;}
	.st18{fill:#AEA8AF;}
	.st19{fill:#9C969E;}
	.st20{fill:#C9C6CA;}
	.st21{fill:#C0BCC1;}
	.st22{fill:#4B3F4E;}
	.st23{fill:#5D5360;}
	.st24{fill:#FFFFFF;}
	.st25{fill:#DBD9DC;}
	.st26{fill:#FF96A0;}
	.st27{fill:#FF8087;}
	.st28{display:inline;fill:#FFCE56;}
	.st29{display:inline;fill:#D7D2C8;}
	.st30{display:inline;fill:#C3BEAF;}
	.st31{display:inline;fill:#595966;}
	.st32{display:inline;fill:#82C35F;}
	.st33{display:inline;fill:#E6E1D7;}
	.st34{display:inline;fill:#464655;}
	.st35{fill:#464655;}
</style>
<circle class="st0" cx="254" cy="258" r="254"/>
<g class="st1">
	<path class="st2" d="M402,89.1h-66.6c-24.1,9.6-29.5-6.7-79.9-6.7s-55.8,16.2-79.9,6.7H109l-8.9,167.3
		c5.5,65.8,46.3,101.6,78.5,114.6h153.7c32.2-13,73-48.8,78.5-114.6L402,89.1z"/>
	<path class="st3" d="M335.4,89.1c75,22.4,34.2,138.2,82.4,188.2c6.9,7.2,19.2,4,22.1-5.6c3.8-12.6,7.6-32.6,7-61.1
		c-0.8-39.1,15-41.6,15-41.6s-20-93.2-79.9-93.2C362,75.8,335.4,89.1,335.4,89.1z"/>
	<path class="st4" d="M185.5,262.3L185.5,262.3c-12.8,0-23.3-10.5-23.3-23.3v-13.3c0-12.8,10.5-23.3,23.3-23.3l0,0
		c12.8,0,23.3,10.5,23.3,23.3V239C208.8,251.8,198.3,262.3,185.5,262.3z"/>
	<path class="st5" d="M185.5,202.3c-1.1,0-2.2,0.2-3.3,0.3v33c0,7.4,6,13.3,13.3,13.3c7.4,0,13.3-6,13.3-13.3v-10
		C208.8,212.8,198.3,202.3,185.5,202.3z"/>
	<circle class="st6" cx="185.5" cy="219" r="10"/>
	<path class="st4" d="M325.4,262.3L325.4,262.3c-12.8,0-23.3-10.5-23.3-23.3v-13.3c0-12.8,10.5-23.3,23.3-23.3l0,0
		c12.8,0,23.3,10.5,23.3,23.3V239C348.7,251.8,338.2,262.3,325.4,262.3z"/>
	<path class="st5" d="M325.4,202.3c-1.1,0-2.2,0.2-3.3,0.3v33c0,7.4,6,13.3,13.3,13.3c7.4,0,13.3-6,13.3-13.3v-10
		C348.7,212.8,338.2,202.3,325.4,202.3z"/>
	<circle class="st6" cx="325.4" cy="219" r="10"/>
	<path class="st7" d="M417.8,277.4c6.9,7.2,19.2,4,22.1-5.6c2.2-7.2,4.4-17,5.7-29.3c-13.1-6.5-24.3-27.3-31.1-62.6
		c-12.5-64.1-30-99.9-79.1-90.7C410.4,111.6,369.5,227.3,417.8,277.4z"/>
	<path class="st8" d="M178.6,371.1h31.6c0,0-55.4-37.2-64.6-102.9C127.8,140.3,161.7,102,191,92.2c-4.6,0.2-9.5-0.6-15.5-3h-66.6
		L100,256.5C105.6,322.2,146.4,358,178.6,371.1z"/>
	<path class="st3" d="M175.5,89.1c-75,22.4-34.2,138.2-82.4,188.2c-6.9,7.2-19.2,4-22.1-5.6c-3.8-12.6-7.6-32.6-7-61.1
		c0.8-39.1-15-41.6-15-41.6s20-93.2,79.9-93.2C148.9,75.8,175.5,89.1,175.5,89.1z"/>
	<path class="st7" d="M173.3,88.1c-6.8-3.1-27.8-12.3-44.4-12.3C69,75.8,49,169,49,169s15.8,2.5,15,41.6c0,0.5,0,1,0,1.5
		C102.3,66.8,161.2,83,173.3,88.1z"/>
	<ellipse class="st9" cx="255.5" cy="375.5" rx="73.3" ry="53.3"/>
	<path class="st10" d="M222.2,375.5v33.3c0,18.4,14.9,33.3,33.3,33.3s33.3-14.9,33.3-33.3v-33.3H222.2z"/>
	<path class="st11" d="M222.2,401.5c9.6-1.2,18.7-4.1,26.6-8.6v9.2c0,3.7,3,6.7,6.7,6.7c3.7,0,6.7-3,6.7-6.7v-9.3
		c7.8,4.5,17,7.4,26.6,8.7v-26h-66.6L222.2,401.5L222.2,401.5z"/>
	<path class="st12" d="M298.7,315.6h-86.6c-27.6,0-49.9,16.4-49.9,36.6s22.4,36.6,49.9,36.6c13.9,0,26.4-4.2,35.5-10.9
		c2.3-1.7,5-2.5,7.8-2.5s5.5,0.8,7.8,2.5c9,6.7,21.6,10.9,35.5,10.9c27.6,0,49.9-16.4,49.9-36.6C348.7,332,326.3,315.6,298.7,315.6z
		"/>
	<path class="st5" d="M255.5,288.9c22.1,0,40,11.9,40,26.6c0,14.2-16.8,21.7-28.9,27.2c-7,3.2-15.1,3.2-22.1,0
		c-12.1-5.5-28.9-13-28.9-27.2C215.5,300.9,233.4,288.9,255.5,288.9z"/>
	<path class="st4" d="M235.3,308.3c-0.9-8.4,5-17.3,5-17.3c-14.5,4-24.7,13.5-24.7,24.6c0,14.2,16.8,21.7,28.9,27.2
		c7,3.2,15.1,3.2,22.1,0c2.6-1.2,5.4-2.5,8.3-3.9C258.4,336,237.1,325.1,235.3,308.3z"/>
</g>
<g class="st1">
	<path class="st13" d="M396.8,63.1c8.1-6.6,20.3-0.8,20.3,9.6v166.5l-136.7-80.8L396.8,63.1z"/>
	<path class="st14" d="M404.6,231.9l-83.2-49.2l69.3-78.2c4.8-5.5,13.9-2,13.9,5.3V231.9z"/>
	<path class="st13" d="M114.2,63.1c-8.1-6.6-20.3-0.8-20.3,9.6v166.5l136.7-80.8L114.2,63.1z"/>
	<path class="st14" d="M106.4,231.9l83.2-49.2l-69.3-78.2c-4.8-5.5-13.9-2-13.9,5.3V231.9z"/>
	<ellipse class="st15" cx="255.5" cy="279.6" rx="174" ry="164.7"/>
	<path class="st10" d="M280.4,382.2v12.4c0,13.7-11.1,24.9-24.9,24.9l0,0c-13.7,0-24.9-11.1-24.9-24.9v-12.4l24.9-12.4L280.4,382.2z
		"/>
	<path class="st5" d="M269.2,318.2h-27.4c-5.9,0-9.2,6.9-5.5,11.5l13.7,17c2.8,3.5,8.1,3.5,11,0l13.7-17
		C278.5,325,275.2,318.2,269.2,318.2z"/>
	<g class="st16">
		<path class="st17" d="M423.3,388.4c-1,0-1.9-0.2-2.9-0.7c-37.6-19.5-96.4-31.1-97-31.3c-3.4-0.7-5.6-3.9-4.9-7.3
			c0.7-3.4,3.9-5.6,7.3-4.9c2.5,0.5,61.1,12.1,100.3,32.4c3,1.6,4.2,5.3,2.6,8.4C427.7,387.1,425.5,388.4,423.3,388.4z"/>
		<path class="st17" d="M435.7,344.9c-0.5,0-1.1-0.1-1.6-0.2c-34.8-9.4-98.2-7.6-98.8-7.6c-3.5,0.1-6.3-2.6-6.4-6
			c-0.1-3.4,2.6-6.3,6-6.4c2.7-0.1,65.8-1.9,102.4,8c3.3,0.9,5.3,4.3,4.4,7.6C441,343,438.5,344.9,435.7,344.9z"/>
	</g>
	<path class="st13" d="M299,431.9c-96.1,0-174-73.7-174-164.7c0-66.8,42-124.2,102.4-150.1c-82.7,12.7-145.9,80.6-145.9,162.5
		c0,90.9,77.9,164.7,174,164.7c25.5,0,49.7-5.2,71.6-14.6C318,431.1,308.6,431.9,299,431.9z"/>
	<g class="st16">
		<path class="st17" d="M87.8,388.4c-2.2,0-4.4-1.2-5.5-3.3c-1.6-3-0.4-6.8,2.6-8.4c39.2-20.4,97.8-31.9,100.3-32.4
			c3.4-0.7,6.6,1.5,7.3,4.9c0.7,3.4-1.5,6.6-4.9,7.3c-0.6,0.1-59.4,11.7-97,31.3C89.7,388.1,88.7,388.4,87.8,388.4z"/>
		<path class="st17" d="M75.3,344.9c-2.7,0-5.3-1.8-6-4.6c-0.9-3.3,1.1-6.7,4.4-7.6c36.6-9.8,99.7-8.1,102.4-8c3.4,0.1,6.1,3,6,6.4
			c-0.1,3.4-3.1,6.1-6.4,6c-0.6,0-64-1.8-98.8,7.6C76.4,344.8,75.9,344.9,75.3,344.9z"/>
	</g>
	<path class="st4" d="M184.1,301.4L184.1,301.4c-12,0-21.7-9.8-21.7-21.7v-12.4c0-12,9.8-21.7,21.7-21.7l0,0
		c12,0,21.7,9.8,21.7,21.7v12.4C205.8,291.6,196,301.4,184.1,301.4z"/>
	<path class="st5" d="M184.1,245.5c-1.1,0-2.1,0.2-3.1,0.3v30.8c0,6.9,5.6,12.4,12.4,12.4c6.9,0,12.4-5.6,12.4-12.4v-9.3
		C205.8,255.2,196,245.5,184.1,245.5z"/>
	<circle class="st6" cx="184.1" cy="261" r="9.3"/>
	<path class="st4" d="M327,301.4L327,301.4c-12,0-21.7-9.8-21.7-21.7v-12.4c0-12,9.8-21.7,21.7-21.7l0,0c12,0,21.7,9.8,21.7,21.7
		v12.4C348.7,291.6,338.9,301.4,327,301.4z"/>
	<path class="st5" d="M327,245.5c-1.1,0-2.1,0.2-3.1,0.3v30.8c0,6.9,5.6,12.4,12.4,12.4c6.9,0,12.4-5.6,12.4-12.4v-9.3
		C348.7,255.2,338.9,245.5,327,245.5z"/>
	<circle class="st6" cx="327" cy="261" r="9.3"/>
	<path class="st4" d="M260.3,346.9l-13.7-27.2c-0.2-0.5-0.4-1-0.6-1.6h-4.2c-5.9,0-9.2,6.9-5.5,11.5l13.7,17
		c2.7,3.3,7.5,3.4,10.4,0.4C260.4,347,260.4,347,260.3,346.9z"/>
	<path class="st11" d="M255.5,369.7l-24.9,12.4v12.4c0,2,0.3,3.9,0.7,5.7c6.3-0.8,12.3-2.6,17.9-5.4v5.9c0,3.4,2.8,6.2,6.2,6.2
		s6.2-2.8,6.2-6.2v-5.9c5.6,2.8,11.7,4.6,17.9,5.4c0.4-1.8,0.7-3.7,0.7-5.7v-12.4L255.5,369.7z"/>
	<path class="st14" d="M286.6,388.4c-8.8,0-17.3-2.6-24.5-7.6c-3.9-2.6-9.3-2.6-13.2,0c-7.2,4.9-15.7,7.6-24.5,7.6
		c-10.7,0-21-4-29-11.1c-2.6-2.3-2.8-6.2-0.5-8.8c2.3-2.6,6.2-2.8,8.8-0.5c10.4,9.4,26.8,10.4,38.2,2.6c8.1-5.6,19.1-5.6,27.2,0
		c11.4,7.8,27.8,6.8,38.2-2.6c2.6-2.3,6.5-2.1,8.8,0.5c2.3,2.6,2.1,6.5-0.5,8.8C307.6,384.4,297.3,388.4,286.6,388.4z"/>
</g>
<path class="st18" d="M447.8,9.1c0,0-3.4,158.2-90.7,230.8l-63.6-51.6C351,66.6,447.8,9.1,447.8,9.1z"/>
<path class="st19" d="M357.1,239.9L329,217.1l-2.1-18.7c15.4-35.2,55.7-118.5,121-189.2C447.8,9.1,444.4,167.4,357.1,239.9z"/>
<path class="st18" d="M63.7,9.1c0,0,3.4,158.2,90.7,230.8l63.6-51.6C160.5,66.6,63.7,9.1,63.7,9.1z"/>
<path class="st19" d="M154.4,239.9l28.2-22.8l2.1-18.7C169.3,163.1,129,79.9,63.7,9.1C63.7,9.1,67.1,167.4,154.4,239.9z"/>
<path class="st20" d="M381.2,320.5c-7.7-13.3-12.2-28.1-11.7-43.3c0-0.9,0-1.8,0-2.7c0-52.3-51-94.6-113.8-94.6
	s-113.8,42.4-113.8,94.6c0,0.9,0,1.8,0,2.7c0.6,15.2-4,29.9-11.7,43.3c-6.2,10.8-9.7,22.7-9.7,35.1c0,52.3,60.5,94.6,135.2,94.6
	s135.2-42.4,135.2-94.6C390.9,343.2,387.5,331.3,381.2,320.5z"/>
<path class="st21" d="M172.8,366.7c0-14.4,3.5-28.1,9.7-40.7c7.7-15.4,12.2-32.5,11.7-50.1c0-1.1,0-2.1,0-3.2
	c0-39,21.3-73.2,53.2-92.6c-58.9,3.6-105.4,44.4-105.4,94.3c0,0.9,0,1.8,0,2.7c0.6,15.2-4,29.9-11.7,43.3
	c-6.2,10.8-9.7,22.7-9.7,35.1c0,42.1,39.3,77.8,93.7,90C188.7,425.7,172.8,397.8,172.8,366.7z"/>
<path class="st22" d="M191.7,343.5L191.7,343.5c-11.8,0-21.3-9.6-21.3-21.3v-7.1c0-11.8,9.6-21.3,21.3-21.3l0,0
	c11.8,0,21.3,9.6,21.3,21.3v7.1C213.1,334,203.5,343.5,191.7,343.5z"/>
<path class="st23" d="M191.7,293.7v24.9c0,5.9,4.8,10.7,10.7,10.7c5.9,0,10.7-4.8,10.7-10.7v-3.6
	C213.1,303.3,203.5,293.7,191.7,293.7z"/>
<circle class="st24" cx="191.7" cy="307.9" r="7.1"/>
<path class="st22" d="M319.8,343.5L319.8,343.5c-11.8,0-21.3-9.6-21.3-21.3v-7.1c0-11.8,9.6-21.3,21.3-21.3l0,0
	c11.8,0,21.3,9.6,21.3,21.3v7.1C341.1,334,331.6,343.5,319.8,343.5z"/>
<path class="st23" d="M319.8,293.7v24.9c0,5.9,4.8,10.7,10.7,10.7s10.7-4.8,10.7-10.7v-3.6C341.1,303.3,331.6,293.7,319.8,293.7z"/>
<circle class="st24" cx="319.8" cy="307.9" r="7.1"/>
<path class="st25" d="M319.8,364.8c-42.7-14.2-49.8-35.6-49.8-49.8s-7.1-21.3-14.2-21.3c-7.1,0-14.2,7.1-14.2,21.3
	s-7.1,35.6-49.8,49.8c-29.8,9.9-38.8,30.3-36.6,53.7c24.7,19.4,60.6,31.6,100.7,31.6s75.9-12.3,100.7-31.6
	C358.5,395.1,349.6,374.8,319.8,364.8z"/>
<path class="st21" d="M279.9,440.7c-8.4,0-16.4-2.8-23.1-8.2c-0.6-0.5-1.4-0.4-2,0c-6.7,5.3-14.7,8.2-23.1,8.2
	c-12.7,0-24.6-6.5-31.6-17.5c-2.1-3.3-1.2-7.7,2.1-9.8c3.3-2.1,7.7-1.2,9.8,2.1c4.4,6.9,11.8,11,19.7,11c5.2,0,10.1-1.8,14.3-5.1
	c5.7-4.6,14-4.6,19.7,0c4.2,3.3,9.1,5.1,14.3,5.1c7.9,0,15.2-4.1,19.7-11c2.1-3.3,6.5-4.2,9.8-2.1c3.3,2.1,4.2,6.5,2.1,9.8
	C304.5,434.2,292.6,440.7,279.9,440.7z"/>
<path class="st26" d="M255.8,364.8c17.9,0,32.4,10.6,32.4,23.6c0,12.6-13.6,19.2-23.5,24.1c-5.7,2.8-12.2,2.8-17.9,0
	c-9.8-4.9-23.5-11.5-23.5-24.1C223.3,375.4,237.9,364.8,255.8,364.8z"/>
<path class="st27" d="M263,409.5c-9.8-5.8-23.5-13.6-23.5-28.5c0-5.4,1.8-10.4,4.8-14.6c-12.3,3.4-21,12-21,22.1
	c0,12.6,13.6,19.2,23.5,24.1c5.7,2.8,12.2,2.8,17.9,0c0.8-0.4,1.6-0.8,2.4-1.2C265.7,410.9,264.4,410.3,263,409.5z"/>
<path class="st20" d="M214.3,445.6c-23.5-18.3-38.7-43.5-41-71.6c-15.1,11-19.7,26.9-18.1,44.5c0,0,0,0,0,0
	C170.9,431,191.2,440.4,214.3,445.6z"/>
<g class="st1">
	<path class="st28" d="M123.6,147.3c0,0-42.5,36.4-42.5,121.3c0,0,48.5-30.3,139.5-24.3v-97H123.6z"/>
	<path class="st29" d="M196.4,214c0,0-42.5-6.1-78.8,12.1c0,0-12.1-48.5,18.2-78.8l66.7-6.1L196.4,214z"/>
	<path class="st30" d="M111.5,147.3c12.1,0,54.6,24.3,78.8,72.8v-72.8H111.5z"/>
	<path class="st31" d="M244.9,432.4c0,0-84.9,6.1-133.4-66.7l-12.1,12.1c0,0-18.2-18.2-18.2-48.5c0-109.2,115.2-109.2,115.2-109.2
		L244.9,432.4z"/>
	<path class="st28" d="M366.2,147.3c0,0,42.5,36.4,42.5,121.3c0,0-48.5-30.3-139.5-24.3v-97H366.2z"/>
	<path class="st29" d="M293.4,214c0,0,42.5-6.1,78.8,12.1c0,0,12.1-48.5-18.2-78.8l-66.7-6.1L293.4,214z"/>
	<path class="st30" d="M378.3,147.3c-12.1,0-54.6,24.3-78.8,72.8v-72.8H378.3z"/>
	<path class="st31" d="M244.9,432.4c0,0,84.9,6.1,133.4-66.7l12.1,12.1c0,0,18.2-18.2,18.2-48.5c0-109.2-115.2-109.2-115.2-109.2
		L244.9,432.4z"/>
	<path class="st29" d="M366.2,305c0-66.7-72.8-78.8-72.8-78.8h-97c0,0-72.8,12.1-72.8,78.8c0,34.3,33,79.5,115.3,95.9h12.1
		C333.2,384.5,366.2,339.3,366.2,305z"/>
	<path class="st32" d="M348,110.9l12.1-6.1c0,0-18.2-18.2-115.2-18.2s-115.2,18.2-115.2,18.2l12.1,6.1
		c-36.4,12.1-48.5,66.7-48.5,66.7c60.6-54.6,111.7-4.3,111.7-4.3l39.9-7.9l39.9,7.9c0,0,51.1-50.3,111.7,4.3
		C396.5,177.7,384.3,123.1,348,110.9z"/>
	<path class="st33" d="M311.6,214c-11.2-23.7,1.5-37.9-12.1-54.6c-19.2-23.5-42.5-6.1-54.6-6.1c-12.1,0-35.4-17.4-54.6,6.1
		c-13.6,16.7-1,30.9-12.1,54.6c-11.2,23.7,13.9,25.8,22.7,25.8c15.2,0,44,4.5,44,4.5s28.8-4.5,44-4.5
		C297.7,239.8,322.7,237.7,311.6,214z"/>
	<path class="st34" d="M290.4,177.1c0.8,0,1.6-0.2,2.3-0.5c3.1-1.3,4.5-4.8,3.3-7.9c-0.2-0.5-5.5-12.9-18.6-14.7
		c-3.4-0.4-6.4,1.9-6.8,5.2c-0.4,3.3,1.9,6.4,5.2,6.8c6.2,0.8,8.9,7.1,9.1,7.3C285.8,175.7,288,177.1,290.4,177.1z"/>
	<path class="st31" d="M311.6,330.5c0,37.5-39.9,101.9-66.7,101.9s-66.7-64.4-66.7-101.9s29.9-67.9,66.7-67.9S311.6,293,311.6,330.5
		z"/>
	<g class="st16">
		<path class="st35" d="M244.9,462.7c20.2,0,60.6-190,60.6-212.3s-38.4-84.9-60.6-84.9s-60.6,62.7-60.6,84.9
			S224.7,462.7,244.9,462.7z"/>
		<ellipse class="st35" cx="141.8" cy="180.7" rx="12.1" ry="21.2"/>
		<ellipse class="st35" cx="348" cy="180.7" rx="12.1" ry="21.2"/>
		<path class="st35" d="M199.4,177.1c-0.8,0-1.6-0.2-2.3-0.5c-3.1-1.3-4.5-4.8-3.3-7.9c0.2-0.5,5.5-12.9,18.6-14.7
			c3.4-0.4,6.4,1.9,6.8,5.2c0.4,3.3-1.9,6.4-5.2,6.8c-6.2,0.8-8.9,7.1-9.1,7.3C204,175.7,201.7,177.1,199.4,177.1z"/>
	</g>
</g>
</svg>
