<?xml version="1.0" encoding="utf-8"?>
<!-- Generator: Adobe Illustrator 22.1.0, SVG Export Plug-In . SVG Version: 6.00 Build 0)  -->
<svg version="1.1" id="Capa_1" xmlns="http://www.w3.org/2000/svg" xmlns:xlink="http://www.w3.org/1999/xlink" x="0px" y="0px"
	 viewBox="0 0 512 512" style="enable-background:new 0 0 512 512;" xml:space="preserve">
<style type="text/css">
	.st0{fill:#39C471;}
	.st1{fill:#F5DCB4;}
	.st2{fill:#965A50;}
	.st3{fill:#4B3F4E;}
	.st4{fill:#5D5360;}
	.st5{fill:#FFFFFF;}
	.st6{fill:#824641;}
	.st7{fill:#E7C9A5;}
	.st8{fill:#BC8E78;}
	.st9{fill:#FF8087;}
	.st10{fill:#E6646E;}
	.st11{fill:#D4AF91;}
</style>
<circle class="st0" cx="254" cy="258" r="254"/>
<path class="st1" d="M402,89.1h-66.6c-24.1,9.6-29.5-6.7-79.9-6.7s-55.8,16.2-79.9,6.7h-66.6l-8.9,167.3
	c5.5,65.8,46.3,101.6,78.5,114.6h153.7c32.2-13,73-48.8,78.5-114.6L402,89.1z"/>
<path class="st2" d="M335.4,89.1c75,22.4,34.2,138.2,82.4,188.2c6.9,7.2,19.2,4,22.1-5.6c3.8-12.6,7.6-32.6,7-61.1
	c-0.8-39.1,15-41.6,15-41.6s-20-93.2-79.9-93.2C362,75.8,335.4,89.1,335.4,89.1z"/>
<path class="st3" d="M185.5,262.3L185.5,262.3c-12.8,0-23.3-10.5-23.3-23.3v-13.3c0-12.8,10.5-23.3,23.3-23.3l0,0
	c12.8,0,23.3,10.5,23.3,23.3V239C208.8,251.8,198.3,262.3,185.5,262.3z"/>
<path class="st4" d="M185.5,202.3c-1.1,0-2.2,0.2-3.3,0.3v33c0,7.4,6,13.3,13.3,13.3c7.4,0,13.3-6,13.3-13.3v-10
	C208.8,212.8,198.3,202.3,185.5,202.3z"/>
<circle class="st5" cx="185.5" cy="219" r="10"/>
<path class="st3" d="M325.4,262.3L325.4,262.3c-12.8,0-23.3-10.5-23.3-23.3v-13.3c0-12.8,10.5-23.3,23.3-23.3l0,0
	c12.8,0,23.3,10.5,23.3,23.3V239C348.7,251.8,338.2,262.3,325.4,262.3z"/>
<path class="st4" d="M325.4,202.3c-1.1,0-2.2,0.2-3.3,0.3v33c0,7.4,6,13.3,13.3,13.3c7.4,0,13.3-6,13.3-13.3v-10
	C348.7,212.8,338.2,202.3,325.4,202.3z"/>
<circle class="st5" cx="325.4" cy="219" r="10"/>
<path class="st6" d="M417.8,277.4c6.9,7.2,19.2,4,22.1-5.6c2.2-7.2,4.4-17,5.7-29.3c-13.1-6.5-24.3-27.3-31.1-62.6
	c-12.5-64.1-30-99.9-79.1-90.7C410.4,111.6,369.5,227.3,417.8,277.4z"/>
<path class="st7" d="M178.6,371.1h31.6c0,0-55.4-37.2-64.6-102.9c-17.8-127.9,16.1-166.2,45.4-176c-4.6,0.2-9.5-0.6-15.5-3h-66.6
	l-8.9,167.3C105.6,322.2,146.4,358,178.6,371.1z"/>
<path class="st2" d="M175.5,89.1c-75,22.4-34.2,138.2-82.4,188.2c-6.9,7.2-19.2,4-22.1-5.6c-3.8-12.6-7.6-32.6-7-61.1
	c0.8-39.1-15-41.6-15-41.6s20-93.2,79.9-93.2C148.9,75.8,175.5,89.1,175.5,89.1z"/>
<path class="st6" d="M173.3,88.1c-6.8-3.1-27.8-12.3-44.4-12.3C69,75.8,49,169,49,169s15.8,2.5,15,41.6c0,0.5,0,1,0,1.5
	C102.3,66.8,161.2,83,173.3,88.1z"/>
<ellipse class="st8" cx="255.5" cy="375.5" rx="73.3" ry="53.3"/>
<path class="st9" d="M222.2,375.5v33.3c0,18.4,14.9,33.3,33.3,33.3s33.3-14.9,33.3-33.3v-33.3H222.2z"/>
<path class="st10" d="M222.2,401.5c9.6-1.2,18.7-4.1,26.6-8.6v9.2c0,3.7,3,6.7,6.7,6.7c3.7,0,6.7-3,6.7-6.7v-9.3
	c7.8,4.5,17,7.4,26.6,8.7v-26h-66.6V401.5z"/>
<path class="st11" d="M298.7,315.6h-86.6c-27.6,0-49.9,16.4-49.9,36.6s22.4,36.6,49.9,36.6c13.9,0,26.4-4.2,35.5-10.9
	c2.3-1.7,5-2.5,7.8-2.5c2.8,0,5.5,0.8,7.8,2.5c9,6.7,21.6,10.9,35.5,10.9c27.6,0,49.9-16.4,49.9-36.6
	C348.7,332,326.3,315.6,298.7,315.6z"/>
<path class="st4" d="M255.5,288.9c22.1,0,40,11.9,40,26.6c0,14.2-16.8,21.7-28.9,27.2c-7,3.2-15.1,3.2-22.1,0
	c-12.1-5.5-28.9-13-28.9-27.2C215.5,300.9,233.4,288.9,255.5,288.9z"/>
<path class="st3" d="M235.3,308.3c-0.9-8.4,5-17.3,5-17.3c-14.5,4-24.7,13.5-24.7,24.6c0,14.2,16.8,21.7,28.9,27.2
	c7,3.2,15.1,3.2,22.1,0c2.6-1.2,5.4-2.5,8.3-3.9C258.4,336,237.1,325.1,235.3,308.3z"/>
</svg>
